<svg xmlns="http://www.w3.org/2000/svg" width="28" height="28" viewBox="0 0 28 28"><g><g><g><path fill="#e5e5e5" d="M1.137 27.933a.579.579 0 0 1-.559-.732l1.77-6.462a13.506 13.506 0 0 1-1.682-6.533C.67 6.766 6.724.713 14.163.713a13.415 13.415 0 0 1 9.547 3.958 13.413 13.413 0 0 1 3.95 9.546c-.004 7.44-6.058 13.492-13.497 13.492h-.006c-2.173 0-4.327-.53-6.245-1.533l-6.628 1.738a.582.582 0 0 1-.147.02z"/></g><g><path fill="#fff" d="M4.238 24.286l1.085-3.96-.255-.407a10.704 10.704 0 0 1-1.642-5.712C3.43 8.289 8.245 3.474 14.166 3.474a10.667 10.667 0 0 1 7.591 3.148 10.668 10.668 0 0 1 3.142 7.593c-.003 5.919-4.819 10.734-10.736 10.734h-.004a10.722 10.722 0 0 1-5.465-1.496l-.392-.233zm3.747 1.272a12.907 12.907 0 0 0 6.172 1.572h.006c7.119 0 12.914-5.794 12.917-12.914A12.836 12.836 0 0 0 23.3 5.08a12.835 12.835 0 0 0-9.137-3.787c-7.12 0-12.915 5.793-12.918 12.913 0 2.276.594 4.498 1.725 6.456l-1.833 6.692z"/></g><g><path fill="#4caf50" d="M1.586 26.903l1.77-6.46A12.443 12.443 0 0 1 1.69 14.21C1.693 7.336 7.287 1.744 14.16 1.744A12.39 12.39 0 0 1 22.98 5.4a12.39 12.39 0 0 1 3.65 8.82c-.003 6.874-5.597 12.467-12.47 12.467h-.005c-2.087-.001-4.138-.525-5.96-1.517z"/></g><g><g><path fill="#fff" d="M4.238 24.286l1.085-3.96-.255-.407a10.704 10.704 0 0 1-1.642-5.712C3.43 8.289 8.245 3.474 14.166 3.474a10.667 10.667 0 0 1 7.591 3.148 10.668 10.668 0 0 1 3.142 7.593c-.003 5.919-4.819 10.734-10.736 10.734h-.004a10.722 10.722 0 0 1-5.465-1.496l-.392-.233zm3.747 1.272a12.907 12.907 0 0 0 6.172 1.572h.006c7.119 0 12.914-5.794 12.917-12.914A12.836 12.836 0 0 0 23.3 5.08a12.835 12.835 0 0 0-9.137-3.787c-7.12 0-12.915 5.793-12.918 12.913 0 2.276.594 4.498 1.725 6.456l-1.833 6.692z"/></g><g><path fill="#fff" d="M10.934 8.807c-.241-.537-.496-.548-.726-.557-.188-.008-.403-.008-.618-.008-.216 0-.565.081-.861.404-.296.323-1.13 1.104-1.13 2.692s1.157 3.123 1.318 3.338c.162.215 2.233 3.578 5.514 4.872 2.726 1.076 3.28.862 3.873.808.591-.054 1.91-.781 2.178-1.535.27-.753.27-1.4.188-1.534-.08-.135-.296-.215-.618-.377-.323-.161-1.91-.942-2.206-1.05-.296-.108-.51-.161-.726.162-.215.323-.833 1.05-1.022 1.265-.188.215-.376.242-.7.08-.322-.16-1.361-.501-2.595-1.601-.959-.855-1.607-1.912-1.795-2.235-.188-.323-.003-.482.142-.659.26-.317.699-.888.806-1.103.108-.216.054-.404-.027-.566-.08-.161-.708-1.757-.995-2.396z"/></g></g></g></g></svg>